<svg xmlns="http://www.w3.org/2000/svg" width="1200" height="630" viewBox="0 0 1200 630">
  <defs>
    <linearGradient id="bg" x1="0%" y1="0%" x2="100%" y2="100%">
      <stop offset="0%" style="stop-color:#0f1117;stop-opacity:1" />
      <stop offset="100%" style="stop-color:#1a1d2e;stop-opacity:1" />
    </linearGradient>
    <linearGradient id="accent" x1="0%" y1="0%" x2="100%" y2="0%">
      <stop offset="0%" style="stop-color:#6366f1;stop-opacity:1" />
      <stop offset="100%" style="stop-color:#8b5cf6;stop-opacity:1" />
    </linearGradient>
    <!-- P&L curve path decoration -->
    <linearGradient id="curve-grad" x1="0%" y1="0%" x2="100%" y2="0%">
      <stop offset="0%" style="stop-color:#ef4444;stop-opacity:0.6" />
      <stop offset="45%" style="stop-color:#ef4444;stop-opacity:0.6" />
      <stop offset="55%" style="stop-color:#22c55e;stop-opacity:0.7" />
      <stop offset="100%" style="stop-color:#22c55e;stop-opacity:0.7" />
    </linearGradient>
  </defs>

  <!-- Background -->
  <rect width="1200" height="630" fill="url(#bg)" />

  <!-- Subtle grid lines -->
  <g stroke="#ffffff" stroke-opacity="0.04" stroke-width="1">
    <line x1="0" y1="157" x2="1200" y2="157" />
    <line x1="0" y1="315" x2="1200" y2="315" />
    <line x1="0" y1="473" x2="1200" y2="473" />
    <line x1="300" y1="0" x2="300" y2="630" />
    <line x1="600" y1="0" x2="600" y2="630" />
    <line x1="900" y1="0" x2="900" y2="630" />
  </g>

  <!-- Decorative P&L curve -->
  <polyline
    points="80,420 200,410 340,390 460,370 530,315 580,260 640,220 720,200 840,195 980,193 1120,192"
    fill="none"
    stroke="url(#curve-grad)"
    stroke-width="3"
    stroke-linecap="round"
    stroke-linejoin="round"
    opacity="0.5"
  />

  <!-- Break-even vertical line -->
  <line x1="540" y1="160" x2="540" y2="500" stroke="#6366f1" stroke-width="1.5" stroke-dasharray="6,4" opacity="0.5" />

  <!-- Zero line -->
  <line x1="80" y1="315" x2="1120" y2="315" stroke="#ffffff" stroke-width="1" opacity="0.15" />

  <!-- Left content block -->
  <!-- Brand pill -->
  <rect x="80" y="80" width="110" height="36" rx="8" fill="url(#accent)" />
  <text x="135" y="104" font-family="system-ui, -apple-system, sans-serif" font-size="18" font-weight="700" fill="white" text-anchor="middle" letter-spacing="2">OPS</text>

  <!-- Main headline -->
  <text x="80" y="200" font-family="system-ui, -apple-system, sans-serif" font-size="56" font-weight="700" fill="white" letter-spacing="-1">Free Options</text>
  <text x="80" y="270" font-family="system-ui, -apple-system, sans-serif" font-size="56" font-weight="700" fill="white" letter-spacing="-1">Calculator</text>

  <!-- Accent underline -->
  <rect x="80" y="284" width="320" height="4" rx="2" fill="url(#accent)" />

  <!-- Subheadline -->
  <text x="80" y="340" font-family="system-ui, -apple-system, sans-serif" font-size="22" fill="#a0a3b1">Greeks · P&amp;L · Implied Volatility · Scenarios</text>

  <!-- Feature pills -->
  <rect x="80" y="378" width="130" height="32" rx="16" fill="#ffffff" fill-opacity="0.08" stroke="#6366f1" stroke-width="1" stroke-opacity="0.4" />
  <text x="145" y="399" font-family="system-ui, -apple-system, sans-serif" font-size="14" fill="#c4b5fd" text-anchor="middle">Black-Scholes</text>

  <rect x="224" y="378" width="100" height="32" rx="16" fill="#ffffff" fill-opacity="0.08" stroke="#22c55e" stroke-width="1" stroke-opacity="0.4" />
  <text x="274" y="399" font-family="system-ui, -apple-system, sans-serif" font-size="14" fill="#86efac" text-anchor="middle">Real Data</text>

  <rect x="338" y="378" width="80" height="32" rx="16" fill="#ffffff" fill-opacity="0.08" stroke="#f59e0b" stroke-width="1" stroke-opacity="0.4" />
  <text x="378" y="399" font-family="system-ui, -apple-system, sans-serif" font-size="14" fill="#fcd34d" text-anchor="middle">Free</text>

  <!-- Domain -->
  <text x="80" y="540" font-family="system-ui, -apple-system, sans-serif" font-size="18" fill="#6b7280">options.olelohonua.com</text>

  <!-- Right side mini chart decoration (heatmap tiles) -->
  <g opacity="0.25">
    <rect x="780" y="120" width="36" height="36" rx="4" fill="#ef4444" />
    <rect x="822" y="120" width="36" height="36" rx="4" fill="#f97316" />
    <rect x="864" y="120" width="36" height="36" rx="4" fill="#eab308" />
    <rect x="906" y="120" width="36" height="36" rx="4" fill="#22c55e" />
    <rect x="948" y="120" width="36" height="36" rx="4" fill="#16a34a" />
    <rect x="990" y="120" width="36" height="36" rx="4" fill="#15803d" />
    <rect x="1032" y="120" width="36" height="36" rx="4" fill="#166534" />

    <rect x="780" y="162" width="36" height="36" rx="4" fill="#f97316" />
    <rect x="822" y="162" width="36" height="36" rx="4" fill="#eab308" />
    <rect x="864" y="162" width="36" height="36" rx="4" fill="#22c55e" />
    <rect x="906" y="162" width="36" height="36" rx="4" fill="#16a34a" />
    <rect x="948" y="162" width="36" height="36" rx="4" fill="#15803d" />
    <rect x="990" y="162" width="36" height="36" rx="4" fill="#166534" />
    <rect x="1032" y="162" width="36" height="36" rx="4" fill="#14532d" />

    <rect x="780" y="204" width="36" height="36" rx="4" fill="#eab308" />
    <rect x="822" y="204" width="36" height="36" rx="4" fill="#22c55e" />
    <rect x="864" y="204" width="36" height="36" rx="4" fill="#16a34a" />
    <rect x="906" y="204" width="36" height="36" rx="4" fill="#15803d" />
    <rect x="948" y="204" width="36" height="36" rx="4" fill="#15803d" />
    <rect x="990" y="204" width="36" height="36" rx="4" fill="#166534" />
    <rect x="1032" y="204" width="36" height="36" rx="4" fill="#14532d" />

    <rect x="780" y="246" width="36" height="36" rx="4" fill="#ef4444" />
    <rect x="822" y="246" width="36" height="36" rx="4" fill="#f97316" />
    <rect x="864" y="246" width="36" height="36" rx="4" fill="#eab308" />
    <rect x="906" y="246" width="36" height="36" rx="4" fill="#eab308" />
    <rect x="948" y="246" width="36" height="36" rx="4" fill="#22c55e" />
    <rect x="990" y="246" width="36" height="36" rx="4" fill="#16a34a" />
    <rect x="1032" y="246" width="36" height="36" rx="4" fill="#15803d" />

    <rect x="780" y="288" width="36" height="36" rx="4" fill="#dc2626" />
    <rect x="822" y="288" width="36" height="36" rx="4" fill="#ef4444" />
    <rect x="864" y="288" width="36" height="36" rx="4" fill="#f97316" />
    <rect x="906" y="288" width="36" height="36" rx="4" fill="#eab308" />
    <rect x="948" y="288" width="36" height="36" rx="4" fill="#22c55e" />
    <rect x="990" y="288" width="36" height="36" rx="4" fill="#22c55e" />
    <rect x="1032" y="288" width="36" height="36" rx="4" fill="#16a34a" />

    <rect x="780" y="330" width="36" height="36" rx="4" fill="#b91c1c" />
    <rect x="822" y="330" width="36" height="36" rx="4" fill="#dc2626" />
    <rect x="864" y="330" width="36" height="36" rx="4" fill="#ef4444" />
    <rect x="906" y="330" width="36" height="36" rx="4" fill="#f97316" />
    <rect x="948" y="330" width="36" height="36" rx="4" fill="#eab308" />
    <rect x="990" y="330" width="36" height="36" rx="4" fill="#22c55e" />
    <rect x="1032" y="330" width="36" height="36" rx="4" fill="#16a34a" />

    <rect x="780" y="372" width="36" height="36" rx="4" fill="#991b1b" />
    <rect x="822" y="372" width="36" height="36" rx="4" fill="#b91c1c" />
    <rect x="864" y="372" width="36" height="36" rx="4" fill="#dc2626" />
    <rect x="906" y="372" width="36" height="36" rx="4" fill="#ef4444" />
    <rect x="948" y="372" width="36" height="36" rx="4" fill="#f97316" />
    <rect x="990" y="372" width="36" height="36" rx="4" fill="#eab308" />
    <rect x="1032" y="372" width="36" height="36" rx="4" fill="#22c55e" />
  </g>

  <!-- Right side label -->
  <text x="906" y="440" font-family="system-ui, -apple-system, sans-serif" font-size="13" fill="#4b5563" text-anchor="middle">P&amp;L Heatmap</text>
</svg>
